<?xml version="1.0" encoding="utf-8"?>
<!-- Generator: Adobe Illustrator 27.4.1, SVG Export Plug-In . SVG Version: 6.00 Build 0)  -->
<svg version="1.1" id="Capa_1" xmlns="http://www.w3.org/2000/svg" xmlns:xlink="http://www.w3.org/1999/xlink" x="0px" y="0px"
	 viewBox="0 0 314 164" enable-background="new 0 0 314 164" xml:space="preserve">
<path fill="#53575A" d="M186.6,61.1c0.6-0.3,1.2-0.8,1.2-1.8v0c0-0.5-0.2-1-0.5-1.3c-0.5-0.5-1.2-0.7-2.1-0.7h-3.6v8.1h3.7
	c1.8,0,3-0.8,3-2.2v0C188.2,62,187.5,61.4,186.6,61.1z M182.8,58.5h2c0.9,0,1.4,0.4,1.4,1v0c0,0.7-0.6,1.1-1.5,1.1h-1.9V58.5z
	 M186.7,63c0,0.7-0.6,1.1-1.6,1.1h-2.4v-2.2h2.3C186.2,61.8,186.7,62.2,186.7,63L186.7,63z"/>
<polygon fill="#53575A" points="194.1,60.8 191.9,57.2 190.2,57.2 193.4,62.1 193.4,65.3 194.9,65.3 194.9,62.1 198.1,57.2 
	196.4,57.2 "/>
<path fill="#53575A" d="M233.7,61c0.2-0.4,0.3-0.9,0.3-1.4c0-0.3-0.1-0.5-0.2-0.8c-0.1-0.3-0.3-0.5-0.5-0.8
	c-0.2-0.2-0.5-0.4-0.9-0.6c-0.4-0.2-0.8-0.2-1.3-0.2h-3.1v8.2h1.5v-3.2h1.5l1.7,3.2h1.7l-1.9-3.4C233.1,61.7,233.5,61.4,233.7,61z
	 M232.2,60.5c-0.2,0.2-0.5,0.3-0.9,0.3h-1.6v-2.4h1.6c0.4,0,0.7,0.1,0.9,0.3c0.2,0.2,0.3,0.5,0.3,0.9
	C232.5,60,232.4,60.3,232.2,60.5z"/>
<rect x="248.3" y="57.2" fill="#53575A" width="1.5" height="8.2"/>
<path fill="#53575A" d="M243.6,61c0.2-0.4,0.3-0.9,0.3-1.4c0-0.3-0.1-0.5-0.2-0.8c-0.1-0.3-0.3-0.5-0.5-0.8
	c-0.2-0.2-0.5-0.4-0.9-0.6c-0.4-0.2-0.8-0.2-1.3-0.2H238v8.2h1.5v-3.2h1.5l1.7,3.2h1.7l-1.9-3.4C243,61.7,243.4,61.4,243.6,61z
	 M242,60.5c-0.2,0.2-0.5,0.3-0.9,0.3h-1.6v-2.4h1.6c0.4,0,0.7,0.1,0.9,0.3c0.2,0.2,0.3,0.5,0.3,0.9C242.4,60,242.3,60.3,242,60.5z"
	/>
<polygon fill="#53575A" points="212.2,57.2 209.8,61.1 207.3,57.2 205.9,57.2 205.5,65.4 207,65.4 207.2,59.8 209.4,63.1 
	210.1,63.1 212.3,59.7 212.5,65.4 214,65.4 213.6,57.2 "/>
<path fill="#53575A" d="M260.8,58.3c-0.4-0.4-0.8-0.7-1.3-0.9c-0.5-0.2-1.1-0.3-1.7-0.3c-0.6,0-1.2,0.1-1.7,0.3
	c-0.5,0.2-1,0.5-1.3,0.9c-0.4,0.4-0.7,0.8-0.9,1.4c-0.2,0.5-0.3,1.1-0.3,1.7c0,0.6,0.1,1.2,0.3,1.7c0.2,0.5,0.5,1,0.9,1.4
	c0.4,0.4,0.8,0.7,1.3,0.9c0.5,0.2,1.1,0.3,1.7,0.3c0.6,0,1.1-0.1,1.7-0.3c0.5-0.2,1-0.5,1.3-0.9c0.4-0.4,0.7-0.8,0.9-1.4
	c0.2-0.5,0.3-1.1,0.3-1.7c0-0.6-0.1-1.2-0.3-1.7C261.5,59.1,261.2,58.6,260.8,58.3z M260.3,62.4c-0.1,0.4-0.3,0.7-0.5,0.9
	c-0.2,0.3-0.5,0.5-0.8,0.6c-0.3,0.2-0.7,0.2-1.1,0.2c-0.4,0-0.8-0.1-1.1-0.2c-0.3-0.2-0.6-0.4-0.8-0.6c-0.2-0.3-0.4-0.6-0.5-0.9
	c-0.1-0.4-0.2-0.7-0.2-1.1c0-0.4,0.1-0.8,0.2-1.1c0.1-0.3,0.3-0.6,0.5-0.9c0.2-0.3,0.5-0.5,0.8-0.6c0.3-0.2,0.7-0.2,1.1-0.2
	c0.4,0,0.8,0.1,1.1,0.2c0.3,0.2,0.6,0.4,0.8,0.6c0.2,0.3,0.4,0.6,0.5,0.9c0.1,0.3,0.2,0.7,0.2,1.1C260.4,61.6,260.4,62,260.3,62.4z"
	/>
<polygon fill="#53575A" points="273.7,58.6 276.5,58.6 276.5,65.4 278,65.4 278,58.6 280.8,58.6 280.8,57.2 273.7,57.2 "/>
<path fill="#53575A" d="M220.2,57.2l-3.1,8.2h1.6l0.7-2.1h3l0.7,2.1h1.7l-3.1-8.2H220.2z M219.9,62l1.1-3.2l1.1,3.2H219.9z"/>
<polygon fill="#53575A" points="264.1,58.6 266.8,58.6 266.8,65.4 268.4,65.4 268.4,58.6 271.1,58.6 271.1,57.2 264.1,57.2 "/>
<path fill="#D99A29" d="M36.9,46c-5.1,0-8.3-4.1-8.3-8.8c0-4.6,3-8.4,8.2-8.4c3.9,0,6.7,2.6,6.7,2.6l2.1-3.3c0,0-3.1-3.4-9.1-3.4
	c-7.2,0-12.6,5.5-12.6,12.6c0,7.2,5.2,12.8,12.7,12.8c6.3,0,9.7-4,9.7-4L44,42.9C44,42.9,41.1,46,36.9,46z"/>
<path fill="#D99A29" d="M66.1,24.7c-7.2,0-12.7,5.5-12.7,12.5c0,7.2,5.5,12.9,12.7,12.9c7.2,0,12.7-5.6,12.7-12.9
	C78.9,30.2,73.4,24.7,66.1,24.7z M66.1,46c-4.5,0-8.1-3.7-8.1-8.8c0-4.8,3.6-8.4,8.1-8.4c4.5,0,8.1,3.6,8.1,8.4
	C74.2,42.3,70.6,46,66.1,46z"/>
<path fill="#D99A29" d="M103.2,40.8c0,3.3-2.2,5.2-5.5,5.2c-3.3,0-5.4-1.9-5.4-5.2V25.1h-4.5v15.8c0,5.5,4,9.2,9.9,9.2
	c5.9,0,9.9-3.7,9.9-9.2V25.1h-4.5V40.8z"/>
<path fill="#D99A29" d="M131.5,39.3L131.5,39.3c2.6-1.1,4.2-3.8,4.2-6.8c0-3.3-1.6-5.6-4-6.7c-1.1-0.5-2.3-0.7-5-0.7h-7.9v24.6h4.5
	v-9.2h4.3l4.9,9.2h5l-5.1-9.2C131.9,39.6,131.5,39.3,131.5,39.3z M127.3,36.6h-4v-7.7h3.4c3.5,0,4.5,1.5,4.5,3.8
	C131.2,35.2,129.7,36.6,127.3,36.6z"/>
<polygon fill="#D99A29" points="144,28.9 152.1,28.9 152.1,49.7 156.6,49.7 156.6,28.9 164.6,28.9 164.6,25.1 144,25.1 "/>
<path fill="#D99A29" d="M185.8,49.7V39.4l8.2-14.3h-5.1l-3.8,7.2c-0.8,1.5-1.5,3.3-1.5,3.3h-0.1c0,0-0.7-1.8-1.5-3.3l-3.8-7.2h-5.1
	l8.2,14.3v10.3H185.8z"/>
<path fill="#D99A29" d="M244.6,39.3L244.6,39.3c2.6-1.1,4.2-3.8,4.2-6.8c0-3.3-1.6-5.6-4-6.7c-1.1-0.5-2.3-0.7-5-0.7h-7.9v24.6h4.5
	v-9.2h4.3l4.9,9.2h5l-5.1-9.2C244.9,39.6,244.6,39.3,244.6,39.3z M240.3,36.6h-4v-7.7h3.4c3.5,0,4.5,1.5,4.5,3.8
	C244.2,35.2,242.7,36.6,240.3,36.6z"/>
<path fill="#D99A29" d="M280.9,37.4c0-7.8-5-12.3-12.5-12.3H260v24.6h8.4C276,49.7,280.9,45.1,280.9,37.4z M264.5,45.8V28.9h3.7
	c4.9,0,8.2,2.9,8.2,8.4c0,5.5-3.2,8.5-8.2,8.5H264.5z"/>
<path fill="#D99A29" d="M221.7,49.7l-10.9-24.6h-0.1l-10.9,24.6h4.5l0,0c0,0,0,0,0,0c0.2-0.3,0.4-0.6,0.6-0.9c0,0,0.9-1.3,1.3-1.8
	c0.4-0.5,1-1.1,1.6-1.6c0.3-0.2,0.6-0.5,0.9-0.7c0.3-0.2,0.6-0.4,0.9-0.6c1.3-0.8,2.7-1.5,4.2-1.9l0.4-0.1l3.1,7.6H221.7z
	 M208.2,40.7c-0.1,0.1-0.3,0.2-0.4,0.2l2.9-7.1h0.1l2.1,5.1C211.2,39.4,209.7,39.9,208.2,40.7z"/>
<g>
	<path fill="#D99A29" d="M286.7,24.7c1.9,0,3.3,1.5,3.3,3.4c0,1.9-1.5,3.4-3.3,3.4c-1.8,0-3.3-1.5-3.3-3.4
		C283.4,26.2,284.8,24.7,286.7,24.7z M286.7,31.1c1.7,0,2.9-1.3,2.9-3c0-1.7-1.3-3-2.9-3c-1.6,0-2.9,1.3-2.9,3
		C283.8,29.8,285,31.1,286.7,31.1z M285.6,26.2h1.2c0.6,0,1.1,0.4,1.1,1.1c0,0.6-0.3,0.9-0.7,1v0c0,0,0,0,0.1,0.2l0.7,1.4h-0.5
		l-0.8-1.6H286v1.6h-0.4V26.2z M286.8,28c0.4,0,0.7-0.3,0.7-0.7c0-0.5-0.3-0.7-0.7-0.7H286V28H286.8z"/>
</g>
<g>
	<path fill="#53575A" d="M154.1,89.2h1.8l4.6,10.4c0.4,0.9,0.9,2.2,0.9,2.2h0.1c0,0,0.5-1.3,0.9-2.2l4.6-10.4h1.8l1.4,17.7h-1.7
		l-1-12.4c-0.1-1-0.1-2.5-0.1-2.5h-0.1c0,0-0.5,1.6-0.9,2.5l-4.1,9.1h-1.6l-4.1-9.1c-0.4-0.9-1-2.5-1-2.5h-0.1c0,0,0,1.6-0.1,2.5
		l-1,12.4h-1.7L154.1,89.2z"/>
	<path fill="#53575A" d="M179.1,93.9c3.5,0,5.3,2.7,5.3,5.8c0,0.3-0.1,0.9-0.1,0.9h-9.7c0.1,3.2,2.3,5,4.9,5c2.3,0,3.8-1.5,3.8-1.5
		l0.8,1.3c0,0-1.8,1.8-4.7,1.8c-3.8,0-6.6-2.7-6.6-6.6C172.9,96.4,175.7,93.9,179.1,93.9z M182.7,99.2c-0.1-2.6-1.7-3.9-3.6-3.9
		c-2.1,0-3.9,1.3-4.3,3.9H182.7z"/>
	<path fill="#53575A" d="M191.1,101.4c0,0-0.2,0.4-0.4,0.7l-3.1,4.7h-2l4.4-6.6l-4.1-6.1h2l2.7,4.2c0.2,0.3,0.4,0.7,0.4,0.7h0
		c0,0,0.2-0.4,0.4-0.7l2.7-4.2h2l-4.1,6.1l4.4,6.6h-2l-3.1-4.7C191.4,101.8,191.2,101.4,191.1,101.4L191.1,101.4L191.1,101.4z"/>
	<path fill="#53575A" d="M198.8,89.2h1.8v2.1h-1.8V89.2z M198.8,94.2h1.7v12.6h-1.7V94.2z"/>
	<path fill="#53575A" d="M209.9,93.9c3.1,0,4.6,1.8,4.6,1.8l-0.9,1.3c0,0-1.4-1.5-3.7-1.5c-2.8,0-4.9,2.1-4.9,5.1c0,3,2.2,5.1,5,5.1
		c2.6,0,4-1.8,4-1.8l0.8,1.3c0,0-1.7,2-4.9,2c-3.7,0-6.6-2.7-6.6-6.6C203.2,96.7,206.2,93.9,209.9,93.9z"/>
	<path fill="#53575A" d="M222.6,93.9c3.7,0,6.7,2.8,6.7,6.6c0,3.8-3,6.7-6.7,6.7c-3.7,0-6.7-2.9-6.7-6.7
		C215.9,96.8,218.9,93.9,222.6,93.9z M222.6,105.6c2.7,0,4.9-2.2,4.9-5.1c0-2.9-2.2-5-4.9-5c-2.7,0-4.9,2.1-4.9,5
		C217.7,103.4,219.9,105.6,222.6,105.6z"/>
	<path fill="#53575A" d="M247.4,88.9c4.2,0,6.4,2.3,6.4,2.3l-0.9,1.3c0,0-2.1-2-5.4-2c-4.1,0-7.1,3.2-7.1,7.4c0,4.2,3,7.7,7.2,7.7
		c3.6,0,5.7-2.4,5.7-2.4l1,1.2c0,0-2.4,2.7-6.8,2.7c-5.2,0-8.9-4.1-8.9-9.2C238.6,92.8,242.4,88.9,247.4,88.9z"/>
	<path fill="#53575A" d="M256.7,89.2h1.8v2.1h-1.8V89.2z M256.8,94.2h1.7v12.6h-1.7V94.2z"/>
	<path fill="#53575A" d="M262.3,95.8h-1.7v-1.4h1.7v-3.6h1.7v3.6h3.2v1.4H264v6.3c0,3,1.9,3.3,2.8,3.3c0.4,0,0.6-0.1,0.6-0.1v1.5
		c0,0-0.3,0.1-0.7,0.1c-1.5,0-4.4-0.5-4.4-4.7V95.8z"/>
	<path fill="#53575A" d="M269.2,110c0,0,0.7,0.6,1.5,0.6c1.1,0,1.9-0.9,2.4-2.1l0.8-1.8l-5.3-12.5h1.9l3.7,9.2
		c0.3,0.6,0.5,1.3,0.5,1.3h0.1c0,0,0.2-0.7,0.4-1.3l3.6-9.2h1.9l-6.2,15.3c-0.7,1.6-2,2.6-3.6,2.6c-1.3,0-2.2-0.8-2.2-0.8L269.2,110
		z"/>
	<path fill="#53575A" d="M209.2,117.5h1.9l4.9,13.4c0.3,0.9,0.7,2.3,0.7,2.3h0.1c0,0,0.4-1.4,0.7-2.3l4.9-13.4h1.9l-6.6,17.7h-1.8
		L209.2,117.5z"/>
	<path fill="#53575A" d="M231.8,127.3h0.7V127c0-2.4-1.3-3.3-3.1-3.3c-2.1,0-3.6,1.2-3.6,1.2l-0.8-1.3c0,0,1.7-1.4,4.5-1.4
		c3,0,4.7,1.7,4.7,4.8v8.1h-1.6v-1.4c0-0.6,0.1-1.1,0.1-1.1h-0.1c0,0-1.1,2.7-4.2,2.7c-2.1,0-4.3-1.2-4.3-3.7
		C224.1,127.4,229.6,127.3,231.8,127.3z M228.6,134c2.4,0,3.9-2.5,3.9-4.7v-0.6h-0.7c-2,0-6,0.1-6,2.9
		C225.8,132.8,226.7,134,228.6,134z"/>
	<path fill="#53575A" d="M237.5,117.5h1.7v14.3c0,1.7,0.8,1.9,1.4,1.9c0.2,0,0.4,0,0.4,0v1.5c0,0-0.3,0.1-0.6,0.1
		c-1.1,0-2.9-0.3-2.9-3.1V117.5z"/>
	<path fill="#53575A" d="M243.1,117.5h1.7v14.3c0,1.7,0.8,1.9,1.4,1.9c0.2,0,0.4,0,0.4,0v1.5c0,0-0.3,0.1-0.6,0.1
		c-1.1,0-2.9-0.3-2.9-3.1V117.5z"/>
	<path fill="#53575A" d="M254,122.2c3.5,0,5.3,2.7,5.3,5.8c0,0.3-0.1,0.9-0.1,0.9h-9.7c0.1,3.2,2.3,5,4.9,5c2.3,0,3.8-1.5,3.8-1.5
		l0.8,1.3c0,0-1.8,1.8-4.7,1.8c-3.8,0-6.6-2.7-6.6-6.6C247.8,124.7,250.6,122.2,254,122.2z M257.6,127.5c-0.1-2.6-1.7-3.9-3.6-3.9
		c-2.1,0-3.9,1.3-4.3,3.9H257.6z"/>
	<path fill="#53575A" d="M263.8,122.5v13.1c0,4.2-3,4.7-4.4,4.7c-0.5,0-0.8-0.1-0.8-0.1v-1.5c0,0,0.2,0,0.6,0c1,0,2.9-0.4,2.9-3.2
		v-13H263.8z M262,117.5h1.8v2.1H262V117.5z"/>
	<path fill="#53575A" d="M273.1,122.2c3.7,0,6.7,2.8,6.7,6.6c0,3.8-3,6.7-6.7,6.7c-3.7,0-6.7-2.9-6.7-6.7
		C266.4,125,269.4,122.2,273.1,122.2z M273.1,133.9c2.7,0,4.9-2.2,4.9-5.1c0-2.9-2.2-5-4.9-5c-2.7,0-4.9,2.1-4.9,5
		C268.2,131.7,270.4,133.9,273.1,133.9z"/>
</g>
</svg>
